<?xml version="1.0" standalone="no"?>
<!DOCTYPE svg PUBLIC "-//W3C//DTD SVG 20010904//EN"
 "http://www.w3.org/TR/2001/REC-SVG-20010904/DTD/svg10.dtd">
<svg version="1.0" xmlns="http://www.w3.org/2000/svg"
 width="200.000000pt" height="80.000000pt" viewBox="0 0 200.000000 80.000000"
 preserveAspectRatio="xMidYMid meet">

<g transform="translate(0.000000,80.000000) scale(0.100000,-0.100000)"
fill="#000000" stroke="none">
<path d="M1171 649 c-13 -10 -38 -19 -57 -19 -22 0 -37 -6 -40 -15 -4 -8 -16
-15 -28 -14 -21 0 -21 0 2 9 42 17 22 27 -35 17 -69 -11 -80 -19 -100 -69 -8
-21 -19 -38 -24 -38 -5 0 -9 -4 -9 -10 0 -27 32 -5 54 38 14 26 25 41 26 35 0
-16 66 -18 75 -3 3 6 13 10 22 10 14 0 14 -3 -2 -20 -18 -20 -17 -20 28 -20
47 0 97 16 97 31 0 5 -21 7 -47 4 -45 -4 -46 -4 -10 4 44 9 81 41 75 64 -3 13
-6 13 -27 -4z m-174 -55 c-3 -3 -12 -4 -19 -1 -8 3 -5 6 6 6 11 1 17 -2 13 -5z"/>
<path d="M800 575 c-7 -9 -11 -18 -8 -20 3 -3 11 1 18 10 7 9 11 18 8 20 -3 3
-11 -1 -18 -10z"/>
<path d="M958 551 c11 -6 9 -9 -7 -14 -14 -3 -19 -11 -16 -26 2 -13 -1 -21 -8
-20 -7 1 -19 1 -27 0 -13 -1 -13 -3 -1 -10 8 -5 20 -7 26 -5 7 3 15 -5 19 -18
3 -13 9 -19 13 -13 5 6 14 10 21 11 62 5 59 3 38 19 -24 18 -40 19 -33 2 3 -8
-3 -13 -14 -13 -21 0 -27 16 -6 16 6 0 3 7 -8 16 -19 15 -19 15 10 9 23 -5 26
-4 15 4 -12 9 -10 11 10 12 23 0 23 1 5 9 -19 8 -19 9 2 9 43 2 35 21 -9 21
-27 0 -38 -3 -30 -9z"/>
<path d="M1025 530 c-3 -5 -3 -10 2 -10 4 0 0 -5 -11 -11 -24 -15 -4 -29 42
-29 39 0 43 17 5 23 -18 2 -11 5 18 6 28 0 52 7 59 16 11 13 5 15 -48 15 -34
0 -64 -4 -67 -10z"/>
<path d="M731 483 c-23 -27 -41 -51 -41 -55 0 -5 -11 -8 -25 -8 -14 0 -25 -4
-25 -10 0 -5 7 -10 16 -10 13 0 12 -5 -5 -34 -12 -18 -21 -38 -21 -45 0 -23
16 -9 39 34 30 57 61 62 61 10 0 -23 6 -38 15 -42 16 -6 55 23 55 40 0 6 -6 3
-13 -8 -35 -47 -41 20 -10 109 27 80 12 86 -46 19z m16 -33 c-10 -36 -37 -57
-37 -29 0 10 38 69 44 69 2 0 -2 -18 -7 -40z"/>
<path d="M1310 478 c-51 -89 -62 -158 -25 -158 12 0 13 3 3 19 -9 16 -8 24 8
46 38 54 64 100 64 117 0 36 -21 26 -50 -24z m11 -40 c-24 -39 -28 -30 -5 13
8 17 18 28 21 25 3 -3 -4 -20 -16 -38z"/>
<path d="M1185 420 c-41 -15 -63 -70 -39 -95 11 -11 21 -12 42 -4 31 12 52 28
52 40 0 5 -9 0 -20 -11 -21 -21 -55 -27 -65 -10 -3 5 10 16 30 24 23 10 35 22
35 35 0 25 -10 31 -35 21z m25 -14 c0 -8 -31 -36 -41 -36 -5 0 -4 9 3 20 11
17 38 28 38 16z"/>
<path d="M1022 403 c-28 -25 -36 -57 -17 -73 12 -10 19 -10 27 -2 9 9 8 12 -5
12 -9 0 -17 3 -17 8 0 16 33 54 54 62 l21 9 -21 0 c-12 1 -31 -7 -42 -16z"/>
<path d="M890 395 c-10 -13 -15 -13 -21 -3 -12 18 -27 0 -35 -42 l-7 -35 39
40 39 40 3 -37 c2 -21 8 -38 13 -38 19 0 47 19 53 37 6 14 2 13 -14 -4 -28
-30 -30 -29 -27 14 2 42 -20 56 -43 28z"/>
<path d="M1060 373 c-7 -16 -12 -36 -11 -45 1 -9 -7 -19 -18 -23 -28 -8 -46
-34 -34 -46 15 -15 36 -2 62 38 24 37 38 103 22 103 -4 0 -14 -12 -21 -27z
m-31 -95 c-9 -16 -14 -19 -17 -9 -2 7 2 17 9 22 20 13 21 11 8 -13z"/>
<path d="M1105 359 c-4 -6 -5 -12 -2 -15 2 -3 7 2 10 11 7 17 1 20 -8 4z"/>
<path d="M1320 350 c-6 -11 -8 -20 -6 -20 3 0 10 9 16 20 6 11 8 20 6 20 -3 0
-10 -9 -16 -20z"/>
<path d="M670 205 c0 -32 3 -36 23 -33 17 2 22 10 22 33 0 23 -5 31 -22 33
-20 3 -23 -1 -23 -33z m38 -2 c-4 -22 -22 -20 -26 1 -2 10 3 16 13 16 10 0 15
-7 13 -17z"/>
<path d="M764 228 c-4 -6 0 -16 9 -23 21 -15 22 -29 1 -21 -8 3 -12 2 -9 -4 8
-14 32 -13 41 2 4 6 -1 17 -11 25 -11 7 -13 13 -6 13 7 0 9 5 6 10 -8 13 -22
13 -31 -2z"/>
<path d="M827 208 c6 -35 11 -44 17 -37 2 2 6 19 9 37 6 27 4 32 -13 32 -17 0
-19 -5 -13 -32z"/>
<path d="M877 234 c-11 -11 -8 -52 3 -59 6 -3 10 2 10 12 1 17 1 17 14 1 15
-20 31 -25 19 -6 -4 7 -7 22 -8 33 0 20 -25 32 -38 19z"/>
<path d="M943 205 c0 -22 2 -30 4 -17 2 12 2 30 0 40 -3 9 -5 -1 -4 -23z"/>
<path d="M967 234 c-4 -4 -7 -20 -7 -36 0 -25 4 -29 23 -26 17 2 22 10 22 33
0 29 -22 45 -38 29z m33 -44 c0 -5 -4 -10 -10 -10 -5 0 -10 5 -10 10 0 6 5 10
10 10 6 0 10 -4 10 -10z"/>
<path d="M1033 210 c2 -28 6 -35 22 -35 14 0 21 8 23 28 2 15 -1 27 -7 27 -6
0 -11 -12 -11 -27 0 -32 -16 -20 -23 17 -3 17 -5 13 -4 -10z"/>
<path d="M1093 205 c0 -22 2 -30 4 -17 2 12 2 30 0 40 -3 9 -5 -1 -4 -23z"/>
<path d="M1117 234 c-13 -13 -7 -55 9 -61 24 -9 51 23 38 45 -12 19 -36 27
-47 16z m33 -28 c0 -8 -4 -18 -10 -21 -5 -3 -10 3 -10 14 0 12 5 21 10 21 6 0
10 -6 10 -14z"/>
<path d="M1193 233 c-18 -7 -16 -52 3 -60 23 -9 51 23 38 44 -12 19 -23 24
-41 16z m25 -30 c-4 -22 -22 -20 -26 1 -2 10 3 16 13 16 10 0 15 -7 13 -17z"/>
<path d="M1251 203 c1 -21 3 -30 6 -20 4 17 6 17 23 2 17 -15 18 -14 16 17 -1
26 -6 34 -24 36 -20 3 -22 -1 -21 -35z"/>
<path d="M1321 214 c-16 -35 -14 -49 4 -34 12 10 18 10 30 0 13 -11 13 -8 4
19 -15 42 -24 45 -38 15z"/>
<path d="M730 206 c0 -14 5 -28 10 -31 6 -4 10 7 10 24 0 17 -4 31 -10 31 -5
0 -10 -11 -10 -24z"/>
</g>
</svg>
