<?xml version="1.0" standalone="no"?>
<!DOCTYPE svg PUBLIC "-//W3C//DTD SVG 20010904//EN"
 "http://www.w3.org/TR/2001/REC-SVG-20010904/DTD/svg10.dtd">
<svg version="1.0" xmlns="http://www.w3.org/2000/svg"
 width="1080.000000pt" height="1094.000000pt" viewBox="0 0 1080.000000 1094.000000"
 preserveAspectRatio="xMidYMid meet">

<g transform="translate(0.000000,1094.000000) scale(0.100000,-0.100000)"
fill="#000000" stroke="none">
<path d="M8170 9377 c0 -21 -67 -153 -111 -219 -132 -196 -347 -366 -579 -456
-41 -16 -84 -33 -95 -37 -45 -18 -162 -49 -275 -74 -145 -31 -277 -44 -476
-45 l-180 -1 -63 -87 c-34 -48 -67 -105 -72 -125 -22 -82 -62 -201 -85 -249
-30 -63 -30 -74 -1 -74 12 0 63 -5 112 -10 92 -10 180 -5 455 26 111 12 522
88 540 99 3 2 50 15 104 30 292 77 503 252 617 513 16 37 33 74 38 82 4 8 18
60 30 115 12 55 27 114 33 130 11 33 24 395 14 395 -3 0 -6 -6 -6 -13z"/>
<path d="M6340 8716 c-83 -45 -761 -157 -1312 -216 -260 -28 -346 -60 -462
-176 -124 -125 -214 -303 -346 -694 -23 -69 -48 -138 -55 -155 -7 -16 -18 -48
-25 -70 -7 -22 -30 -77 -51 -121 -44 -94 -107 -157 -173 -175 -39 -11 -134 -7
-183 7 -20 6 -21 3 -17 -38 20 -180 95 -270 224 -272 210 -2 322 133 514 616
163 409 215 508 320 611 162 158 332 207 811 232 315 16 369 26 495 88 135 67
234 177 281 314 10 31 19 58 19 60 0 6 -15 2 -40 -11z"/>
<path d="M6155 8267 c-44 -29 -151 -68 -243 -87 -71 -15 -162 -23 -337 -30
-340 -13 -446 -30 -581 -95 -40 -19 -97 -58 -127 -85 -53 -48 -125 -146 -115
-155 8 -9 235 -34 407 -45 440 -30 739 58 916 271 36 43 81 123 98 173 24 71
22 79 -18 53z"/>
<path d="M7949 8184 c-53 -64 -241 -145 -426 -183 -50 -10 -96 -21 -100 -24
-17 -11 -368 -56 -543 -71 -96 -8 -296 -20 -445 -26 -201 -9 -278 -16 -302
-27 -20 -9 -48 -39 -72 -74 -42 -66 -98 -217 -88 -241 9 -25 112 -33 402 -32
279 2 664 25 809 49 413 68 688 273 770 573 19 68 17 83 -5 56z"/>
<path d="M2734 8003 c-26 -3 -44 -20 -96 -86 -135 -170 -143 -185 -143 -253 0
-54 4 -66 35 -107 19 -25 38 -47 42 -47 4 0 31 33 61 73 29 39 117 137 195
217 137 140 165 183 130 194 -21 7 -190 13 -224 9z"/>
<path d="M5795 7709 c-287 -67 -626 -72 -936 -14 -74 14 -141 25 -149 25 -13
0 -34 -38 -78 -141 -2 -4 12 -12 30 -17 18 -6 105 -34 193 -62 225 -73 308
-90 470 -97 166 -7 264 9 356 58 73 39 159 130 199 209 35 70 39 68 -85 39z"/>
<path d="M4562 7402 c-14 -42 -18 -68 -12 -70 6 -2 93 -46 193 -97 388 -198
604 -229 770 -113 30 21 97 115 97 135 0 10 -32 13 -129 13 -71 0 -165 5 -208
11 -78 10 -250 54 -353 89 -111 38 -311 100 -323 100 -7 0 -22 -31 -35 -68z"/>
<path d="M7486 7432 c-3 -5 -42 -16 -88 -26 -46 -10 -101 -22 -123 -28 -22 -5
-144 -12 -271 -15 -179 -4 -257 -2 -350 11 -308 41 -683 59 -769 35 -22 -6
-48 -18 -58 -27 -19 -17 -157 -283 -157 -302 0 -6 10 -10 23 -10 12 0 103 -13
202 -30 281 -46 538 -80 659 -87 263 -14 555 52 720 162 78 51 160 146 201
230 19 39 35 77 35 83 0 14 -16 16 -24 4z"/>
<path d="M4476 7189 c-14 -33 -26 -66 -26 -72 0 -15 235 -163 370 -235 171
-90 253 -108 359 -76 38 11 68 30 107 68 30 29 54 58 54 64 0 7 -14 12 -34 12
-59 0 -167 27 -291 73 -130 48 -359 150 -442 197 -29 17 -57 30 -62 30 -4 0
-20 -27 -35 -61z"/>
<path d="M2359 7200 c-148 -26 -458 -340 -845 -855 -104 -139 -309 -427 -379
-532 -27 -41 -55 -73 -64 -73 -9 0 -61 7 -116 15 -245 36 -392 5 -501 -105
-25 -25 -54 -61 -64 -81 l-19 -37 269 -4 c157 -2 273 -8 279 -13 6 -6 -36 -83
-115 -210 -235 -375 -356 -601 -409 -759 -38 -113 -38 -244 -1 -313 28 -51 79
-93 113 -93 15 0 26 13 43 53 32 74 366 747 445 897 37 69 89 168 117 220 28
52 62 115 76 139 l25 43 73 -6 c59 -6 261 -38 453 -73 l33 -6 -6 -61 c-4 -34
-16 -124 -28 -201 -13 -91 -21 -195 -22 -295 -1 -176 16 -254 75 -344 38 -56
115 -111 179 -125 64 -15 179 -13 232 3 105 31 228 144 339 309 64 95 189 338
189 366 0 23 -51 71 -57 54 -3 -7 -39 -64 -80 -125 -189 -280 -330 -418 -428
-418 -55 0 -82 29 -106 117 -21 77 -27 304 -9 402 5 31 16 119 25 196 14 131
73 460 95 529 5 17 28 100 50 185 83 313 249 761 371 1003 l29 57 -25 29 c-34
41 -126 102 -166 111 -19 4 -50 4 -70 1z m-224 -447 c-117 -278 -255 -750
-309 -1059 -9 -48 -18 -89 -20 -91 -3 -3 -62 7 -133 22 -70 15 -173 36 -227
46 -55 11 -104 23 -108 27 -15 15 270 479 447 727 61 85 148 197 194 250 80
92 178 181 189 171 2 -3 -12 -45 -33 -93z"/>
<path d="M10129 7196 c-226 -80 -696 -860 -979 -1624 -33 -89 -60 -166 -60
-170 0 -4 -11 -41 -24 -83 -72 -226 -113 -519 -95 -675 21 -191 105 -276 269
-277 195 0 371 85 518 251 81 91 182 242 242 362 l50 99 -27 20 c-14 12 -31
21 -38 21 -8 0 -39 -48 -70 -107 -115 -217 -283 -423 -386 -471 -53 -26 -127
-29 -169 -7 -102 53 -136 239 -91 498 l18 109 69 61 c275 247 491 550 714
1002 159 322 175 364 221 580 4 22 8 83 9 136 0 141 -37 251 -95 277 -31 14
-31 14 -76 -2z m21 -378 c0 -18 -9 -73 -20 -121 -61 -275 -245 -640 -505
-1002 -104 -145 -254 -311 -255 -282 0 23 80 245 137 377 146 340 409 801 572
1002 53 66 71 72 71 26z"/>
<path d="M4372 6982 c-24 -41 -29 -58 -21 -68 14 -17 260 -201 329 -246 122
-79 195 -101 263 -79 37 13 97 71 97 96 0 7 -23 21 -52 31 -122 39 -324 147
-488 258 -41 28 -79 54 -85 57 -5 4 -25 -18 -43 -49z"/>
<path d="M5507 6958 c-14 -13 -50 -60 -81 -105 l-56 -81 29 -21 c54 -39 245
-129 337 -159 137 -46 201 -54 419 -56 217 -1 276 8 380 60 72 35 168 130 188
186 7 19 -5 21 -158 34 -44 4 -89 8 -100 9 -330 35 -362 40 -550 87 -316 80
-365 85 -408 46z"/>
<path d="M4238 6812 l-36 -37 57 -66 c131 -153 266 -239 376 -239 27 0 115 33
115 43 0 3 -25 17 -56 31 -95 45 -207 125 -385 274 l-35 30 -36 -36z"/>
<path d="M4080 6717 c-19 -6 -37 -12 -39 -13 -6 -5 40 -76 83 -129 55 -67 83
-90 135 -116 47 -22 157 -47 166 -37 7 6 -293 309 -303 307 -4 -1 -23 -6 -42
-12z"/>
<path d="M3870 6696 c0 -24 59 -126 92 -159 37 -36 114 -75 126 -62 10 9 -123
214 -143 219 -23 6 -75 8 -75 2z"/>
<path d="M5185 6639 c-39 -20 -125 -102 -125 -120 0 -13 146 -114 230 -158
144 -76 340 -92 461 -38 30 13 62 33 72 45 19 20 18 21 -253 156 -295 147
-313 153 -385 115z"/>
<path d="M4879 6455 c-94 -34 -123 -55 -115 -83 17 -54 222 -210 316 -240 41
-14 129 -17 180 -7 34 6 78 31 69 39 -2 2 -33 27 -69 55 -35 29 -83 69 -105
89 -146 136 -211 171 -276 147z"/>
<path d="M3970 6405 c0 -31 62 -145 100 -184 32 -33 126 -78 139 -66 2 3 -18
52 -45 111 -32 69 -56 109 -69 114 -11 4 -38 13 -60 20 -22 7 -46 15 -52 17
-7 3 -13 -3 -13 -12z"/>
<path d="M4216 6383 c-5 -6 26 -98 47 -139 25 -48 117 -143 156 -163 46 -23
130 -46 138 -37 3 3 0 14 -9 23 -8 10 -32 52 -52 93 -63 123 -75 138 -136 161
-30 11 -74 31 -97 44 -23 12 -44 21 -47 18z"/>
<path d="M4530 6363 c-14 -3 -29 -9 -34 -13 -8 -8 49 -97 100 -157 11 -12 33
-38 49 -58 56 -69 188 -113 257 -86 l28 10 -85 108 c-47 60 -104 129 -126 156
l-41 47 -61 -1 c-34 -1 -73 -4 -87 -6z"/>
<path d="M8060 5816 c-192 -51 -377 -160 -502 -295 -106 -114 -217 -303 -272
-465 -75 -217 -76 -455 -2 -566 36 -53 102 -114 151 -139 200 -100 547 -43
824 137 108 69 194 152 286 273 67 89 175 267 175 288 0 5 -14 18 -32 29 l-32
21 -32 -60 c-55 -103 -177 -247 -279 -329 -213 -172 -388 -257 -552 -267 -102
-7 -153 10 -212 69 -70 71 -86 116 -86 238 l0 105 85 17 c206 43 431 125 546
200 257 166 395 450 308 634 -58 122 -186 160 -374 110z m181 -173 c17 -43 5
-142 -24 -198 -59 -116 -240 -288 -391 -373 -76 -42 -174 -77 -245 -88 -42 -7
-43 -6 -36 17 15 50 107 214 189 338 148 221 290 328 439 330 54 1 58 -1 68
-26z"/>
<path d="M6110 5755 c-116 -31 -291 -116 -385 -187 -149 -111 -263 -247 -340
-403 -59 -121 -85 -218 -92 -345 -11 -200 44 -317 175 -378 49 -22 63 -24 155
-20 74 4 118 11 160 27 88 35 200 115 298 214 49 49 89 82 89 73 0 -26 -69
-287 -95 -362 l-26 -70 -205 -99 c-297 -143 -430 -238 -502 -358 -68 -112 -83
-276 -32 -350 51 -75 135 -106 253 -93 148 15 285 130 454 381 72 106 148 251
227 435 l37 85 107 64 c175 105 301 200 407 306 92 92 106 111 168 231 37 72
67 138 67 146 0 12 -43 58 -54 58 -2 0 -22 -37 -45 -82 -84 -173 -186 -303
-316 -400 -76 -57 -264 -172 -271 -166 -2 3 9 43 25 89 16 46 50 152 76 234
26 83 51 159 56 170 25 52 129 428 129 465 0 14 -7 36 -16 48 -13 19 -24 22
-80 22 -69 0 -115 -17 -147 -54 -41 -46 -85 -157 -122 -306 -21 -83 -63 -140
-224 -300 -148 -148 -231 -199 -335 -207 -74 -6 -106 13 -124 75 -17 55 -15
78 13 197 42 177 101 284 248 448 113 126 227 210 316 233 86 22 157 34 213
34 61 0 71 -3 102 -31 46 -40 67 -35 84 18 12 37 11 46 -6 87 -32 71 -77 90
-227 93 -103 3 -134 -1 -215 -22z m-130 -1611 c0 -3 -23 -51 -52 -107 -52
-102 -167 -280 -210 -328 -47 -50 -136 -117 -182 -134 -42 -16 -47 -16 -70 -1
-31 20 -42 82 -26 151 26 114 175 243 445 383 79 42 95 47 95 36z"/>
<path d="M4163 5565 c-131 -36 -256 -126 -462 -333 l-164 -165 6 49 c3 27 13
83 22 124 21 93 17 196 -9 235 -18 27 -19 28 -93 21 -67 -5 -131 -26 -172 -55
-11 -7 -16 -33 -17 -88 -5 -147 -58 -341 -169 -615 -71 -174 -86 -221 -76
-236 13 -20 144 -82 175 -82 41 0 52 12 156 180 238 383 466 627 643 686 104
35 195 17 217 -42 20 -51 11 -168 -21 -290 -47 -180 -51 -211 -47 -314 3 -77
8 -103 27 -137 46 -80 134 -119 254 -111 230 15 448 206 615 537 57 113 59
125 37 147 -20 21 -27 15 -80 -74 -71 -117 -180 -266 -246 -336 -130 -139
-307 -171 -335 -60 -11 43 3 116 50 260 88 273 104 388 69 503 -25 79 -117
172 -193 195 -65 19 -117 19 -187 1z"/>
<path d="M2314 3226 c-124 -28 -192 -103 -201 -219 -4 -54 -1 -69 24 -117 22
-43 41 -62 83 -87 55 -33 75 -41 243 -88 77 -22 103 -34 122 -57 29 -34 31
-48 10 -88 -28 -54 -71 -74 -155 -75 -64 0 -81 4 -112 25 -34 23 -78 90 -78
119 0 12 -107 15 -149 4 -20 -5 -23 -10 -18 -44 7 -53 46 -126 90 -170 103
-103 366 -117 499 -27 103 70 138 215 81 329 -45 87 -103 118 -334 179 -37 9
-83 26 -101 37 -28 16 -33 25 -33 57 0 57 35 80 128 84 88 4 131 -18 154 -78
l16 -40 84 0 83 0 0 38 c-1 83 -75 175 -168 207 -67 22 -195 27 -268 11z"/>
<path d="M8110 3226 c-165 -37 -281 -174 -299 -354 -24 -235 55 -415 215 -488
160 -74 379 -45 492 65 126 123 164 351 91 545 -27 72 -109 163 -181 199 -88
44 -212 57 -318 33z m194 -148 c23 -7 59 -30 82 -54 55 -54 76 -120 76 -232 0
-114 -26 -185 -87 -241 -51 -47 -77 -56 -160 -56 -105 0 -188 69 -216 179 -6
26 -10 91 -7 149 3 95 6 109 33 152 34 55 65 80 121 100 49 18 105 19 158 3z"/>
<path d="M910 2789 l0 -430 233 3 233 3 66 33 c97 48 158 136 187 270 37 176
-22 397 -130 482 -79 62 -120 70 -371 70 l-218 0 0 -431z m440 262 c78 -37
118 -157 105 -319 -5 -59 -14 -96 -33 -134 -40 -78 -69 -91 -214 -96 l-118 -4
0 285 0 286 58 3 c89 5 164 -3 202 -21z"/>
<path d="M1780 2790 l0 -430 90 0 90 0 -2 428 -3 427 -87 3 -88 3 0 -431z"/>
<path d="M2870 3150 c0 -80 -13 -72 130 -75 41 -1 85 -3 98 -4 l22 -1 0 -355
0 -355 90 0 90 0 0 354 c0 274 3 355 13 358 6 3 62 4 122 3 61 -2 112 1 115 5
3 4 3 38 2 74 l-4 66 -339 0 -339 0 0 -70z"/>
<path d="M3670 2790 l0 -431 88 3 87 3 3 178 2 177 46 0 c94 0 116 -21 269
-252 l70 -107 103 0 c56 -1 102 2 102 5 0 9 -105 176 -157 251 -24 34 -62 75
-85 92 l-40 30 38 10 c109 30 172 103 181 210 9 101 -36 188 -121 234 -39 21
-55 22 -313 25 l-273 3 0 -431z m502 248 c26 -28 30 -38 25 -76 -3 -30 -13
-53 -31 -71 -26 -25 -30 -26 -171 -29 l-144 -3 -3 105 -3 106 148 0 149 0 30
-32z"/>
<path d="M4545 3207 c-3 -6 -4 -199 -3 -427 l3 -415 83 -3 82 -3 0 431 0 430
-80 0 c-55 0 -82 -4 -85 -13z"/>
<path d="M4880 2791 l0 -431 253 0 c276 0 319 6 383 55 39 30 78 101 88 161
15 84 -30 173 -106 214 l-47 26 34 27 c56 45 78 98 73 178 -3 58 -8 74 -34
106 -17 21 -51 49 -75 63 -43 25 -48 25 -306 28 l-263 3 0 -430z m493 248 c19
-24 23 -80 7 -110 -21 -39 -62 -49 -195 -49 l-125 0 0 95 0 94 113 3 c133 4
176 -4 200 -33z m-14 -325 c71 -28 91 -123 36 -174 -32 -30 -82 -39 -217 -40
l-118 0 0 115 0 115 130 0 c95 0 140 -4 169 -16z"/>
<path d="M5754 3205 c-4 -9 -4 -154 -2 -323 4 -288 6 -311 27 -364 15 -40 36
-70 67 -97 67 -59 126 -76 264 -75 102 0 122 3 171 26 66 30 105 67 130 123
27 61 40 240 37 495 l-3 225 -87 3 -87 3 -3 -318 c-3 -295 -4 -320 -23 -350
-27 -45 -87 -67 -164 -60 -70 6 -106 27 -132 78 -18 35 -19 61 -19 344 l0 305
-85 0 c-67 0 -87 -3 -91 -15z"/>
<path d="M6630 2790 l0 -430 85 0 85 0 0 430 0 430 -85 0 -85 0 0 -430z"/>
<path d="M6960 2790 l0 -432 238 4 c223 3 240 5 289 27 94 42 168 146 194 271
7 32 9 100 6 165 -4 89 -10 123 -32 177 -33 83 -91 150 -159 186 -51 27 -52
27 -293 30 l-243 4 0 -432z m428 268 c39 -12 66 -38 95 -93 19 -35 22 -56 22
-175 0 -124 -2 -139 -25 -184 -43 -85 -90 -105 -252 -106 l-88 0 0 284 c0 219
3 285 13 289 21 7 200 -4 235 -15z"/>
<path d="M8780 2791 l0 -431 90 0 90 0 0 180 0 180 45 0 c55 0 102 -19 133
-52 12 -14 64 -87 116 -164 l93 -139 103 -3 c95 -3 102 -1 96 15 -20 52 -159
254 -209 305 -50 49 -56 59 -40 64 98 32 133 58 167 126 59 118 16 260 -97
321 -40 21 -55 22 -314 25 l-273 3 0 -430z m495 256 c20 -16 28 -35 32 -68 5
-41 2 -50 -25 -80 l-30 -34 -146 -3 -146 -3 0 105 0 106 144 0 c136 0 146 -1
171 -23z"/>
<path d="M9875 3148 c-15 -40 -52 -136 -82 -213 -30 -77 -81 -210 -115 -295
-33 -85 -71 -183 -84 -217 l-24 -63 93 0 92 0 35 95 35 95 175 -2 175 -3 35
-92 35 -93 94 0 c92 0 93 0 87 23 -4 12 -79 204 -169 427 l-162 405 -96 3 -96
3 -28 -73z m183 -292 c29 -76 49 -142 46 -147 -3 -5 -52 -9 -110 -9 -85 0
-104 3 -104 15 0 27 103 296 110 288 4 -4 30 -70 58 -147z"/>
</g>
</svg>
