<?xml version="1.0" encoding="UTF-8"?>
<svg xmlns="http://www.w3.org/2000/svg" xmlns:xlink="http://www.w3.org/1999/xlink" width="60px" height="61px" viewBox="0 0 60 60" version="1.1">
<g id="surface1">
<path style=" stroke:none;fill-rule:nonzero;fill:rgb(0%,0%,0%);fill-opacity:1;" d="M 45.390625 8.570312 C 45.390625 8.683594 45.015625 9.40625 44.773438 9.769531 C 44.039062 10.84375 42.84375 11.777344 41.554688 12.269531 C 41.328125 12.359375 41.089844 12.449219 41.027344 12.472656 C 40.777344 12.570312 40.128906 12.742188 39.5 12.878906 C 38.695312 13.046875 37.960938 13.121094 36.855469 13.125 L 35.855469 13.128906 L 35.503906 13.609375 C 35.316406 13.871094 35.132812 14.183594 35.105469 14.292969 C 34.984375 14.742188 34.761719 15.394531 34.632812 15.65625 C 34.464844 16.003906 34.464844 16.0625 34.628906 16.0625 C 34.695312 16.0625 34.976562 16.089844 35.25 16.117188 C 35.761719 16.171875 36.25 16.144531 37.777344 15.976562 C 38.394531 15.910156 40.679688 15.492188 40.777344 15.433594 C 40.792969 15.421875 41.054688 15.351562 41.355469 15.269531 C 42.976562 14.847656 44.148438 13.886719 44.785156 12.457031 C 44.871094 12.253906 44.964844 12.050781 44.996094 12.007812 C 45.015625 11.960938 45.09375 11.675781 45.160156 11.375 C 45.226562 11.074219 45.3125 10.75 45.34375 10.664062 C 45.40625 10.484375 45.476562 8.496094 45.421875 8.496094 C 45.40625 8.496094 45.390625 8.53125 45.390625 8.570312 Z M 45.390625 8.570312 "/>
<path style=" stroke:none;fill-rule:nonzero;fill:rgb(0%,0%,0%);fill-opacity:1;" d="M 35.222656 12.191406 C 34.761719 12.441406 30.996094 13.054688 27.933594 13.378906 C 26.488281 13.53125 26.011719 13.707031 25.367188 14.34375 C 24.679688 15.027344 24.179688 16.003906 23.445312 18.148438 C 23.316406 18.523438 23.179688 18.902344 23.140625 18.996094 C 23.101562 19.085938 23.039062 19.261719 23 19.378906 C 22.960938 19.5 22.832031 19.800781 22.714844 20.042969 C 22.472656 20.558594 22.121094 20.90625 21.753906 21.003906 C 21.539062 21.0625 21.011719 21.042969 20.738281 20.964844 C 20.628906 20.933594 20.621094 20.949219 20.644531 21.171875 C 20.753906 22.160156 21.171875 22.652344 21.890625 22.664062 C 23.054688 22.675781 23.679688 21.933594 24.746094 19.289062 C 25.648438 17.046875 25.9375 16.503906 26.523438 15.9375 C 27.421875 15.070312 28.367188 14.800781 31.027344 14.664062 C 32.777344 14.578125 33.078125 14.523438 33.777344 14.183594 C 34.527344 13.816406 35.078125 13.210938 35.339844 12.460938 C 35.394531 12.292969 35.445312 12.144531 35.445312 12.132812 C 35.445312 12.101562 35.359375 12.121094 35.222656 12.191406 Z M 35.222656 12.191406 "/>
<path style=" stroke:none;fill-rule:nonzero;fill:rgb(0%,0%,0%);fill-opacity:1;" d="M 34.195312 14.65625 C 33.949219 14.8125 33.355469 15.027344 32.84375 15.132812 C 32.449219 15.214844 31.945312 15.257812 30.972656 15.296875 C 29.082031 15.367188 28.496094 15.460938 27.746094 15.816406 C 27.523438 15.921875 27.207031 16.136719 27.039062 16.28125 C 26.746094 16.546875 26.34375 17.082031 26.398438 17.132812 C 26.445312 17.183594 27.707031 17.320312 28.660156 17.378906 C 31.105469 17.542969 32.765625 17.0625 33.75 15.894531 C 33.949219 15.65625 34.199219 15.21875 34.292969 14.945312 C 34.429688 14.554688 34.417969 14.511719 34.195312 14.65625 Z M 34.195312 14.65625 "/>
<path style=" stroke:none;fill-rule:nonzero;fill:rgb(0%,0%,0%);fill-opacity:1;" d="M 44.160156 15.109375 C 43.867188 15.460938 42.820312 15.90625 41.792969 16.113281 C 41.515625 16.167969 41.261719 16.226562 41.238281 16.246094 C 41.144531 16.304688 39.195312 16.550781 38.222656 16.632812 C 37.6875 16.675781 36.578125 16.742188 35.75 16.777344 C 34.632812 16.824219 34.207031 16.863281 34.070312 16.925781 C 33.960938 16.972656 33.804688 17.136719 33.671875 17.328125 C 33.4375 17.691406 33.128906 18.519531 33.183594 18.652344 C 33.234375 18.789062 33.804688 18.832031 35.417969 18.828125 C 36.964844 18.816406 39.105469 18.691406 39.910156 18.558594 C 42.207031 18.183594 43.734375 17.0625 44.1875 15.417969 C 44.292969 15.042969 44.285156 14.960938 44.160156 15.109375 Z M 44.160156 15.109375 "/>
<path style=" stroke:none;fill-rule:nonzero;fill:rgb(0%,0%,0%);fill-opacity:1;" d="M 15.1875 16.101562 C 15.042969 16.117188 14.945312 16.210938 14.65625 16.574219 C 13.90625 17.503906 13.859375 17.585938 13.859375 17.960938 C 13.859375 18.257812 13.882812 18.324219 14.054688 18.546875 C 14.160156 18.683594 14.265625 18.804688 14.289062 18.804688 C 14.3125 18.804688 14.460938 18.625 14.628906 18.40625 C 14.789062 18.191406 15.277344 17.652344 15.710938 17.214844 C 16.472656 16.449219 16.628906 16.210938 16.433594 16.152344 C 16.316406 16.113281 15.378906 16.078125 15.1875 16.101562 Z M 15.1875 16.101562 "/>
<path style=" stroke:none;fill-rule:nonzero;fill:rgb(0%,0%,0%);fill-opacity:1;" d="M 32.195312 17.714844 C 30.601562 18.082031 28.714844 18.109375 26.996094 17.789062 C 26.582031 17.714844 26.210938 17.652344 26.167969 17.652344 C 26.09375 17.652344 25.976562 17.863281 25.734375 18.425781 C 25.722656 18.449219 25.800781 18.492188 25.898438 18.519531 C 26 18.550781 26.484375 18.707031 26.972656 18.859375 C 28.222656 19.261719 28.683594 19.351562 29.582031 19.390625 C 30.503906 19.429688 31.050781 19.34375 31.5625 19.074219 C 31.964844 18.859375 32.445312 18.359375 32.667969 17.925781 C 32.859375 17.542969 32.882812 17.554688 32.195312 17.714844 Z M 32.195312 17.714844 "/>
<path style=" stroke:none;fill-rule:nonzero;fill:rgb(0%,0%,0%);fill-opacity:1;" d="M 25.34375 19.398438 C 25.265625 19.628906 25.246094 19.769531 25.277344 19.78125 C 25.3125 19.792969 25.792969 20.03125 26.351562 20.3125 C 28.503906 21.398438 29.707031 21.566406 30.628906 20.933594 C 30.792969 20.816406 31.167969 20.300781 31.167969 20.191406 C 31.167969 20.136719 30.988281 20.121094 30.449219 20.121094 C 30.054688 20.121094 29.535156 20.09375 29.292969 20.058594 C 28.859375 20.003906 27.90625 19.765625 27.332031 19.574219 C 26.714844 19.363281 25.605469 19.023438 25.539062 19.023438 C 25.5 19.023438 25.417969 19.195312 25.34375 19.398438 Z M 25.34375 19.398438 "/>
<path style=" stroke:none;fill-rule:nonzero;fill:rgb(0%,0%,0%);fill-opacity:1;" d="M 41.589844 19.234375 C 41.570312 19.261719 41.355469 19.320312 41.101562 19.375 C 40.84375 19.429688 40.539062 19.496094 40.417969 19.527344 C 40.292969 19.554688 39.617188 19.59375 38.910156 19.609375 C 37.917969 19.632812 37.484375 19.621094 36.964844 19.550781 C 35.253906 19.324219 33.171875 19.226562 32.695312 19.359375 C 32.570312 19.390625 32.429688 19.457031 32.371094 19.507812 C 32.265625 19.601562 31.5 21.058594 31.5 21.164062 C 31.5 21.195312 31.554688 21.21875 31.628906 21.21875 C 31.695312 21.21875 32.199219 21.289062 32.75 21.382812 C 34.3125 21.632812 35.738281 21.820312 36.410156 21.859375 C 37.871094 21.933594 39.496094 21.574219 40.410156 20.96875 C 40.84375 20.691406 41.300781 20.171875 41.527344 19.710938 C 41.632812 19.496094 41.722656 19.289062 41.722656 19.253906 C 41.722656 19.175781 41.632812 19.167969 41.589844 19.234375 Z M 41.589844 19.234375 "/>
<path style=" stroke:none;fill-rule:nonzero;fill:rgb(0%,0%,0%);fill-opacity:1;" d="M 24.867188 20.566406 C 24.789062 20.746094 24.722656 20.925781 24.722656 20.960938 C 24.722656 21.042969 26.027344 21.851562 26.777344 22.246094 C 27.726562 22.742188 28.183594 22.839844 28.773438 22.664062 C 28.984375 22.605469 29.148438 22.5 29.367188 22.292969 C 29.535156 22.132812 29.667969 21.972656 29.667969 21.941406 C 29.667969 21.902344 29.589844 21.875 29.476562 21.875 C 29.148438 21.875 28.550781 21.726562 27.859375 21.476562 C 27.140625 21.210938 25.867188 20.652344 25.40625 20.394531 C 25.246094 20.300781 25.089844 20.230469 25.0625 20.230469 C 25.039062 20.230469 24.949219 20.378906 24.867188 20.566406 Z M 24.867188 20.566406 "/>
<path style=" stroke:none;fill-rule:nonzero;fill:rgb(0%,0%,0%);fill-opacity:1;" d="M 13.105469 20.503906 C 12.285156 20.648438 10.5625 22.367188 8.410156 25.191406 C 7.832031 25.953125 6.695312 27.53125 6.304688 28.109375 C 6.15625 28.332031 6 28.507812 5.949219 28.507812 C 5.898438 28.507812 5.609375 28.46875 5.304688 28.425781 C 3.945312 28.230469 3.128906 28.398438 2.523438 29.003906 C 2.382812 29.140625 2.222656 29.335938 2.167969 29.445312 L 2.0625 29.648438 L 3.554688 29.671875 C 4.429688 29.683594 5.070312 29.714844 5.105469 29.742188 C 5.140625 29.773438 4.90625 30.199219 4.464844 30.894531 C 3.160156 32.949219 2.488281 34.1875 2.195312 35.054688 C 1.984375 35.675781 1.984375 36.390625 2.1875 36.769531 C 2.34375 37.050781 2.628906 37.28125 2.816406 37.28125 C 2.898438 37.28125 2.960938 37.210938 3.054688 36.988281 C 3.234375 36.585938 5.089844 32.894531 5.527344 32.074219 C 5.734375 31.695312 6.023438 31.152344 6.179688 30.867188 C 6.332031 30.582031 6.523438 30.234375 6.601562 30.105469 L 6.738281 29.867188 L 7.144531 29.902344 C 7.472656 29.933594 8.59375 30.109375 9.660156 30.300781 L 9.84375 30.335938 L 9.8125 30.667969 C 9.789062 30.855469 9.722656 31.347656 9.65625 31.769531 C 9.582031 32.269531 9.539062 32.839844 9.535156 33.386719 C 9.527344 34.351562 9.621094 34.78125 9.949219 35.273438 C 10.160156 35.582031 10.589844 35.882812 10.945312 35.960938 C 11.300781 36.042969 11.9375 36.03125 12.234375 35.941406 C 12.816406 35.773438 13.5 35.152344 14.117188 34.25 C 14.472656 33.726562 15.167969 32.394531 15.167969 32.242188 C 15.167969 32.117188 14.882812 31.851562 14.851562 31.945312 C 14.832031 31.984375 14.632812 32.296875 14.40625 32.632812 C 13.355469 34.167969 12.570312 34.921875 12.027344 34.921875 C 11.722656 34.921875 11.570312 34.765625 11.4375 34.28125 C 11.320312 33.859375 11.289062 32.613281 11.390625 32.078125 C 11.417969 31.90625 11.476562 31.425781 11.527344 31.003906 C 11.605469 30.285156 11.933594 28.480469 12.054688 28.101562 C 12.082031 28.011719 12.210938 27.554688 12.332031 27.089844 C 12.792969 25.371094 13.714844 22.917969 14.394531 21.589844 L 14.554688 21.277344 L 14.417969 21.117188 C 14.226562 20.894531 13.714844 20.558594 13.496094 20.511719 C 13.390625 20.488281 13.214844 20.488281 13.105469 20.503906 Z M 11.859375 22.953125 C 11.210938 24.480469 10.445312 27.066406 10.144531 28.761719 C 10.09375 29.023438 10.042969 29.25 10.035156 29.261719 C 10.015625 29.277344 9.6875 29.222656 9.292969 29.140625 C 8.90625 29.058594 8.332031 28.941406 8.035156 28.886719 C 7.726562 28.828125 7.457031 28.761719 7.433594 28.738281 C 7.351562 28.65625 8.933594 26.113281 9.917969 24.753906 C 10.253906 24.289062 10.738281 23.671875 10.996094 23.382812 C 11.4375 22.878906 11.984375 22.390625 12.042969 22.445312 C 12.054688 22.460938 11.976562 22.691406 11.859375 22.953125 Z M 11.859375 22.953125 "/>
<path style=" stroke:none;fill-rule:nonzero;fill:rgb(0%,0%,0%);fill-opacity:1;" d="M 56.273438 20.527344 C 55.015625 20.964844 52.40625 25.242188 50.832031 29.429688 C 50.648438 29.917969 50.5 30.339844 50.5 30.363281 C 50.5 30.382812 50.4375 30.585938 50.367188 30.816406 C 49.964844 32.054688 49.738281 33.664062 49.839844 34.515625 C 49.957031 35.566406 50.421875 36.03125 51.332031 36.035156 C 52.417969 36.035156 53.394531 35.570312 54.210938 34.660156 C 54.660156 34.160156 55.222656 33.332031 55.554688 32.675781 L 55.832031 32.132812 L 55.683594 32.023438 C 55.605469 31.957031 55.511719 31.90625 55.472656 31.90625 C 55.429688 31.90625 55.253906 32.171875 55.082031 32.496094 C 54.445312 33.683594 53.511719 34.8125 52.9375 35.078125 C 52.644531 35.21875 52.234375 35.234375 52 35.113281 C 51.433594 34.824219 51.246094 33.804688 51.496094 32.386719 L 51.59375 31.789062 L 51.976562 31.453125 C 53.503906 30.097656 54.707031 28.4375 55.945312 25.960938 C 56.828125 24.195312 56.917969 23.964844 57.171875 22.78125 C 57.195312 22.660156 57.214844 22.324219 57.222656 22.035156 C 57.222656 21.261719 57.015625 20.65625 56.695312 20.515625 C 56.523438 20.4375 56.523438 20.4375 56.273438 20.527344 Z M 56.390625 22.597656 C 56.390625 22.699219 56.339844 23 56.277344 23.261719 C 55.9375 24.769531 54.917969 26.769531 53.472656 28.753906 C 52.894531 29.550781 52.0625 30.460938 52.054688 30.300781 C 52.054688 30.175781 52.5 28.957031 52.816406 28.234375 C 53.628906 26.371094 55.089844 23.84375 55.996094 22.742188 C 56.289062 22.378906 56.390625 22.347656 56.390625 22.597656 Z M 56.390625 22.597656 "/>
<path style=" stroke:none;fill-rule:nonzero;fill:rgb(0%,0%,0%);fill-opacity:1;" d="M 24.289062 21.699219 C 24.15625 21.925781 24.128906 22.015625 24.171875 22.074219 C 24.25 22.164062 25.617188 23.175781 26 23.421875 C 26.679688 23.855469 27.082031 23.976562 27.460938 23.855469 C 27.667969 23.78125 28 23.464844 28 23.328125 C 28 23.289062 27.871094 23.210938 27.710938 23.15625 C 27.035156 22.945312 25.910156 22.351562 25 21.742188 C 24.773438 21.589844 24.5625 21.449219 24.527344 21.429688 C 24.5 21.410156 24.390625 21.53125 24.289062 21.699219 Z M 24.289062 21.699219 "/>
<path style=" stroke:none;fill-rule:nonzero;fill:rgb(0%,0%,0%);fill-opacity:1;" d="M 30.59375 21.832031 C 30.515625 21.902344 30.316406 22.160156 30.144531 22.40625 L 29.832031 22.851562 L 29.996094 22.964844 C 30.292969 23.179688 31.355469 23.671875 31.867188 23.835938 C 32.628906 24.089844 32.984375 24.132812 34.195312 24.144531 C 35.398438 24.148438 35.726562 24.101562 36.304688 23.816406 C 36.707031 23.625 37.238281 23.101562 37.351562 22.796875 C 37.390625 22.691406 37.320312 22.679688 36.472656 22.609375 C 36.226562 22.585938 35.976562 22.566406 35.917969 22.558594 C 34.082031 22.367188 33.90625 22.339844 32.859375 22.082031 C 31.105469 21.644531 30.832031 21.617188 30.59375 21.832031 Z M 30.59375 21.832031 "/>
<path style=" stroke:none;fill-rule:nonzero;fill:rgb(0%,0%,0%);fill-opacity:1;" d="M 23.542969 22.632812 L 23.34375 22.835938 L 23.660156 23.195312 C 24.390625 24.035156 25.140625 24.507812 25.75 24.507812 C 25.898438 24.507812 26.390625 24.324219 26.390625 24.269531 C 26.390625 24.253906 26.25 24.175781 26.078125 24.101562 C 25.550781 23.855469 24.929688 23.414062 23.9375 22.597656 L 23.746094 22.433594 Z M 23.542969 22.632812 "/>
<path style=" stroke:none;fill-rule:nonzero;fill:rgb(0%,0%,0%);fill-opacity:1;" d="M 22.667969 23.152344 C 22.5625 23.183594 22.460938 23.21875 22.449219 23.222656 C 22.417969 23.25 22.671875 23.640625 22.910156 23.929688 C 23.214844 24.296875 23.371094 24.425781 23.660156 24.566406 C 23.921875 24.6875 24.535156 24.824219 24.582031 24.769531 C 24.621094 24.738281 22.957031 23.074219 22.898438 23.085938 C 22.878906 23.09375 22.773438 23.121094 22.667969 23.152344 Z M 22.667969 23.152344 "/>
<path style=" stroke:none;fill-rule:nonzero;fill:rgb(0%,0%,0%);fill-opacity:1;" d="M 21.5 23.265625 C 21.5 23.398438 21.828125 23.957031 22.011719 24.140625 C 22.214844 24.335938 22.644531 24.550781 22.710938 24.480469 C 22.765625 24.429688 22.027344 23.304688 21.917969 23.277344 C 21.789062 23.246094 21.5 23.234375 21.5 23.265625 Z M 21.5 23.265625 "/>
<path style=" stroke:none;fill-rule:nonzero;fill:rgb(0%,0%,0%);fill-opacity:1;" d="M 28.804688 23.578125 C 28.589844 23.691406 28.109375 24.140625 28.109375 24.238281 C 28.109375 24.308594 28.921875 24.863281 29.390625 25.105469 C 30.1875 25.519531 31.277344 25.609375 31.949219 25.3125 C 32.117188 25.242188 32.292969 25.132812 32.351562 25.066406 C 32.457031 24.957031 32.449219 24.949219 30.945312 24.210938 C 29.304688 23.40625 29.207031 23.371094 28.804688 23.578125 Z M 28.804688 23.578125 "/>
<path style=" stroke:none;fill-rule:nonzero;fill:rgb(0%,0%,0%);fill-opacity:1;" d="M 27.105469 24.589844 C 26.582031 24.773438 26.421875 24.890625 26.464844 25.042969 C 26.5625 25.339844 27.699219 26.195312 28.222656 26.359375 C 28.449219 26.4375 28.9375 26.453125 29.222656 26.398438 C 29.410156 26.363281 29.65625 26.226562 29.605469 26.183594 C 29.59375 26.171875 29.421875 26.035156 29.222656 25.882812 C 29.027344 25.722656 28.761719 25.503906 28.640625 25.394531 C 27.828125 24.648438 27.464844 24.457031 27.105469 24.589844 Z M 27.105469 24.589844 "/>
<path style=" stroke:none;fill-rule:nonzero;fill:rgb(0%,0%,0%);fill-opacity:1;" d="M 22.054688 24.863281 C 22.054688 25.03125 22.398438 25.65625 22.609375 25.871094 C 22.789062 26.050781 23.3125 26.300781 23.382812 26.234375 C 23.394531 26.21875 23.285156 25.949219 23.132812 25.625 C 22.957031 25.246094 22.820312 25.027344 22.75 25 C 22.6875 24.976562 22.539062 24.929688 22.417969 24.890625 C 22.292969 24.851562 22.160156 24.808594 22.128906 24.796875 C 22.089844 24.78125 22.054688 24.8125 22.054688 24.863281 Z M 22.054688 24.863281 "/>
<path style=" stroke:none;fill-rule:nonzero;fill:rgb(0%,0%,0%);fill-opacity:1;" d="M 23.421875 24.984375 C 23.394531 25.015625 23.566406 25.519531 23.683594 25.746094 C 23.820312 26.007812 24.332031 26.53125 24.550781 26.640625 C 24.804688 26.765625 25.273438 26.890625 25.316406 26.84375 C 25.332031 26.824219 25.316406 26.765625 25.265625 26.714844 C 25.222656 26.660156 25.089844 26.429688 24.976562 26.207031 C 24.628906 25.53125 24.5625 25.449219 24.222656 25.324219 C 24.054688 25.261719 23.8125 25.152344 23.683594 25.082031 C 23.554688 25.015625 23.4375 24.96875 23.421875 24.984375 Z M 23.421875 24.984375 "/>
<path style=" stroke:none;fill-rule:nonzero;fill:rgb(0%,0%,0%);fill-opacity:1;" d="M 25.167969 25.09375 C 25.089844 25.109375 25.003906 25.140625 24.976562 25.164062 C 24.933594 25.207031 25.25 25.695312 25.535156 26.023438 C 25.59375 26.089844 25.714844 26.234375 25.804688 26.34375 C 26.117188 26.722656 26.851562 26.960938 27.234375 26.816406 L 27.390625 26.761719 L 26.917969 26.167969 C 26.65625 25.839844 26.339844 25.460938 26.214844 25.3125 L 25.988281 25.054688 L 25.648438 25.058594 C 25.460938 25.066406 25.246094 25.082031 25.167969 25.09375 Z M 25.167969 25.09375 "/>
<path style=" stroke:none;fill-rule:nonzero;fill:rgb(0%,0%,0%);fill-opacity:1;" d="M 44.777344 28.09375 C 43.710938 28.371094 42.683594 28.96875 41.988281 29.710938 C 41.398438 30.335938 40.785156 31.371094 40.476562 32.257812 C 40.0625 33.449219 40.054688 34.753906 40.464844 35.363281 C 40.667969 35.652344 41.035156 35.988281 41.304688 36.125 C 42.417969 36.671875 44.34375 36.359375 45.882812 35.371094 C 46.484375 34.996094 46.960938 34.539062 47.472656 33.875 C 47.84375 33.386719 48.445312 32.414062 48.445312 32.296875 C 48.445312 32.269531 48.367188 32.199219 48.265625 32.136719 L 48.089844 32.023438 L 47.910156 32.351562 C 47.605469 32.917969 46.929688 33.707031 46.359375 34.15625 C 45.179688 35.097656 44.207031 35.566406 43.292969 35.621094 C 42.726562 35.65625 42.445312 35.566406 42.117188 35.242188 C 41.726562 34.851562 41.640625 34.605469 41.640625 33.9375 L 41.640625 33.359375 L 42.109375 33.265625 C 43.253906 33.03125 44.503906 32.582031 45.144531 32.171875 C 46.570312 31.261719 47.339844 29.703125 46.855469 28.695312 C 46.535156 28.027344 45.820312 27.816406 44.777344 28.09375 Z M 45.785156 29.039062 C 45.878906 29.277344 45.8125 29.820312 45.648438 30.125 C 45.320312 30.761719 44.316406 31.703125 43.476562 32.171875 C 43.054688 32.402344 42.511719 32.59375 42.117188 32.652344 C 41.882812 32.691406 41.878906 32.6875 41.917969 32.558594 C 42 32.285156 42.511719 31.386719 42.964844 30.707031 C 43.789062 29.496094 44.578125 28.910156 45.40625 28.898438 C 45.707031 28.890625 45.726562 28.902344 45.785156 29.039062 Z M 45.785156 29.039062 "/>
<path style=" stroke:none;fill-rule:nonzero;fill:rgb(0%,0%,0%);fill-opacity:1;" d="M 33.945312 28.425781 C 33.300781 28.597656 32.328125 29.0625 31.804688 29.453125 C 30.976562 30.058594 30.34375 30.804688 29.917969 31.660156 C 29.589844 32.324219 29.445312 32.855469 29.40625 33.550781 C 29.34375 34.648438 29.648438 35.289062 30.378906 35.625 C 30.648438 35.746094 30.726562 35.757812 31.238281 35.734375 C 31.648438 35.710938 31.894531 35.675781 32.128906 35.585938 C 32.617188 35.394531 33.238281 34.957031 33.785156 34.414062 C 34.054688 34.144531 34.277344 33.964844 34.277344 34.011719 C 34.277344 34.15625 33.894531 35.585938 33.75 35.996094 L 33.605469 36.382812 L 32.464844 36.925781 C 30.816406 37.707031 30.078125 38.230469 29.679688 38.886719 C 29.300781 39.5 29.214844 40.398438 29.5 40.804688 C 29.785156 41.21875 30.25 41.386719 30.90625 41.316406 C 31.726562 41.234375 32.488281 40.601562 33.429688 39.226562 C 33.828125 38.644531 34.25 37.851562 34.6875 36.84375 L 34.894531 36.375 L 35.488281 36.023438 C 36.460938 35.449219 37.160156 34.929688 37.75 34.347656 C 38.261719 33.84375 38.339844 33.738281 38.683594 33.082031 C 38.890625 32.6875 39.054688 32.324219 39.054688 32.28125 C 39.054688 32.214844 38.816406 31.960938 38.753906 31.960938 C 38.746094 31.960938 38.632812 32.164062 38.503906 32.414062 C 38.039062 33.359375 37.472656 34.074219 36.75 34.605469 C 36.328125 34.917969 35.285156 35.546875 35.246094 35.515625 C 35.234375 35.5 35.292969 35.28125 35.382812 35.027344 C 35.472656 34.773438 35.660156 34.195312 35.804688 33.746094 C 35.949219 33.289062 36.089844 32.871094 36.117188 32.8125 C 36.253906 32.527344 36.832031 30.464844 36.832031 30.261719 C 36.832031 30.1875 36.792969 30.066406 36.746094 30 C 36.671875 29.894531 36.609375 29.878906 36.300781 29.878906 C 35.917969 29.878906 35.660156 29.972656 35.484375 30.175781 C 35.253906 30.425781 35.011719 31.035156 34.804688 31.851562 C 34.6875 32.308594 34.457031 32.621094 33.5625 33.496094 C 32.738281 34.308594 32.277344 34.589844 31.699219 34.632812 C 31.289062 34.664062 31.109375 34.5625 31.011719 34.222656 C 30.917969 33.921875 30.929688 33.792969 31.082031 33.140625 C 31.316406 32.171875 31.644531 31.585938 32.460938 30.683594 C 33.089844 29.996094 33.722656 29.535156 34.214844 29.40625 C 34.695312 29.289062 35.089844 29.222656 35.398438 29.222656 C 35.738281 29.222656 35.792969 29.238281 35.964844 29.390625 C 36.222656 29.609375 36.339844 29.582031 36.433594 29.292969 C 36.5 29.089844 36.496094 29.039062 36.398438 28.816406 C 36.222656 28.425781 35.972656 28.324219 35.140625 28.304688 C 34.566406 28.289062 34.394531 28.3125 33.945312 28.425781 Z M 33.222656 37.257812 C 33.222656 37.273438 33.09375 37.539062 32.933594 37.84375 C 32.644531 38.40625 32.003906 39.378906 31.765625 39.644531 C 31.503906 39.917969 31.011719 40.285156 30.753906 40.378906 C 30.523438 40.464844 30.496094 40.464844 30.367188 40.382812 C 30.195312 40.273438 30.132812 39.933594 30.222656 39.554688 C 30.367188 38.929688 31.195312 38.222656 32.695312 37.457031 C 33.132812 37.226562 33.222656 37.199219 33.222656 37.257812 Z M 33.222656 37.257812 "/>
<path style=" stroke:none;fill-rule:nonzero;fill:rgb(0%,0%,0%);fill-opacity:1;" d="M 23.128906 29.46875 C 22.398438 29.664062 21.707031 30.160156 20.5625 31.292969 L 19.648438 32.199219 L 19.683594 31.929688 C 19.699219 31.78125 19.753906 31.476562 19.804688 31.25 C 19.921875 30.738281 19.898438 30.175781 19.753906 29.960938 C 19.65625 29.8125 19.648438 29.808594 19.238281 29.847656 C 18.867188 29.875 18.511719 29.988281 18.285156 30.148438 C 18.222656 30.1875 18.195312 30.328125 18.1875 30.628906 C 18.160156 31.4375 17.867188 32.5 17.25 34.003906 C 16.855469 34.957031 16.773438 35.214844 16.828125 35.296875 C 16.898438 35.40625 17.628906 35.746094 17.800781 35.746094 C 18.027344 35.746094 18.089844 35.679688 18.667969 34.757812 C 19.988281 32.660156 21.253906 31.320312 22.238281 30.996094 C 22.816406 30.804688 23.320312 30.90625 23.445312 31.226562 C 23.554688 31.507812 23.503906 32.148438 23.328125 32.816406 C 23.066406 33.804688 23.042969 33.976562 23.066406 34.539062 C 23.082031 34.960938 23.109375 35.105469 23.214844 35.289062 C 23.472656 35.730469 23.960938 35.941406 24.628906 35.898438 C 25.90625 35.816406 27.117188 34.769531 28.042969 32.953125 C 28.359375 32.335938 28.371094 32.269531 28.25 32.148438 C 28.140625 32.035156 28.101562 32.066406 27.804688 32.554688 C 27.410156 33.195312 26.804688 34.011719 26.4375 34.398438 C 25.714844 35.160156 24.734375 35.335938 24.578125 34.726562 C 24.515625 34.488281 24.59375 34.089844 24.855469 33.300781 C 25.34375 31.804688 25.433594 31.171875 25.238281 30.542969 C 25.101562 30.109375 24.589844 29.601562 24.167969 29.472656 C 23.804688 29.371094 23.515625 29.371094 23.128906 29.46875 Z M 23.128906 29.46875 "/>
<path style=" stroke:none;fill-rule:nonzero;fill:rgb(0%,0%,0%);fill-opacity:1;" d="M 12.855469 42.292969 C 12.167969 42.445312 11.789062 42.855469 11.738281 43.492188 C 11.714844 43.789062 11.734375 43.871094 11.871094 44.132812 C 11.996094 44.371094 12.101562 44.472656 12.332031 44.609375 C 12.640625 44.792969 12.75 44.835938 13.683594 45.09375 C 14.109375 45.214844 14.253906 45.28125 14.359375 45.40625 C 14.523438 45.59375 14.535156 45.667969 14.417969 45.886719 C 14.261719 46.183594 14.023438 46.292969 13.554688 46.300781 C 13.199219 46.300781 13.105469 46.277344 12.933594 46.164062 C 12.746094 46.035156 12.5 45.667969 12.5 45.511719 C 12.5 45.445312 11.90625 45.425781 11.671875 45.488281 C 11.5625 45.515625 11.542969 45.542969 11.570312 45.730469 C 11.609375 46.019531 11.828125 46.421875 12.070312 46.660156 C 12.644531 47.226562 14.105469 47.300781 14.84375 46.808594 C 15.417969 46.425781 15.609375 45.628906 15.292969 45.003906 C 15.042969 44.527344 14.722656 44.359375 13.4375 44.023438 C 13.234375 43.976562 12.976562 43.882812 12.878906 43.820312 C 12.722656 43.734375 12.695312 43.683594 12.695312 43.507812 C 12.695312 43.195312 12.890625 43.070312 13.40625 43.046875 C 13.894531 43.027344 14.132812 43.148438 14.261719 43.476562 L 14.351562 43.695312 L 15.277344 43.695312 L 15.277344 43.488281 C 15.273438 43.03125 14.859375 42.527344 14.34375 42.351562 C 13.972656 42.230469 13.261719 42.203125 12.855469 42.292969 Z M 12.855469 42.292969 "/>
<path style=" stroke:none;fill-rule:nonzero;fill:rgb(0%,0%,0%);fill-opacity:1;" d="M 45.054688 42.292969 C 44.140625 42.496094 43.496094 43.246094 43.394531 44.234375 C 43.261719 45.519531 43.699219 46.507812 44.589844 46.90625 C 45.476562 47.3125 46.695312 47.15625 47.320312 46.550781 C 48.023438 45.878906 48.234375 44.628906 47.828125 43.5625 C 47.679688 43.167969 47.222656 42.671875 46.820312 42.472656 C 46.332031 42.230469 45.644531 42.160156 45.054688 42.292969 Z M 46.132812 43.101562 C 46.261719 43.140625 46.460938 43.265625 46.589844 43.398438 C 46.894531 43.695312 47.011719 44.058594 47.011719 44.671875 C 47.011719 45.296875 46.867188 45.683594 46.527344 45.992188 C 46.246094 46.25 46.101562 46.300781 45.640625 46.300781 C 45.054688 46.300781 44.59375 45.921875 44.4375 45.316406 C 44.40625 45.175781 44.382812 44.820312 44.398438 44.5 C 44.417969 43.980469 44.433594 43.902344 44.582031 43.667969 C 44.773438 43.367188 44.945312 43.230469 45.253906 43.121094 C 45.527344 43.019531 45.839844 43.015625 46.132812 43.101562 Z M 46.132812 43.101562 "/>
<path style=" stroke:none;fill-rule:nonzero;fill:rgb(0%,0%,0%);fill-opacity:1;" d="M 5.054688 44.6875 L 5.054688 47.046875 L 6.351562 47.027344 L 7.644531 47.011719 L 8.011719 46.832031 C 8.550781 46.566406 8.890625 46.085938 9.050781 45.351562 C 9.253906 44.386719 8.929688 43.175781 8.328125 42.707031 C 7.890625 42.367188 7.660156 42.324219 6.265625 42.324219 L 5.054688 42.324219 Z M 7.5 43.25 C 7.933594 43.453125 8.15625 44.113281 8.082031 45 C 8.054688 45.324219 8.003906 45.527344 7.898438 45.734375 C 7.679688 46.164062 7.515625 46.234375 6.710938 46.261719 L 6.054688 46.28125 L 6.054688 43.152344 L 6.378906 43.136719 C 6.871094 43.109375 7.289062 43.152344 7.5 43.25 Z M 7.5 43.25 "/>
<path style=" stroke:none;fill-rule:nonzero;fill:rgb(0%,0%,0%);fill-opacity:1;" d="M 9.890625 44.683594 L 9.890625 47.039062 L 10.890625 47.039062 L 10.878906 44.691406 L 10.859375 42.351562 L 10.378906 42.335938 L 9.890625 42.320312 Z M 9.890625 44.683594 "/>
<path style=" stroke:none;fill-rule:nonzero;fill:rgb(0%,0%,0%);fill-opacity:1;" d="M 15.945312 42.707031 C 15.945312 43.148438 15.871094 43.101562 16.667969 43.121094 C 16.894531 43.125 17.140625 43.136719 17.210938 43.140625 L 17.332031 43.148438 L 17.332031 47.039062 L 18.332031 47.039062 L 18.332031 45.097656 C 18.332031 43.597656 18.351562 43.152344 18.40625 43.136719 C 18.4375 43.121094 18.75 43.113281 19.082031 43.121094 C 19.421875 43.128906 19.707031 43.113281 19.722656 43.09375 C 19.738281 43.070312 19.738281 42.882812 19.734375 42.6875 L 19.710938 42.324219 L 15.945312 42.324219 Z M 15.945312 42.707031 "/>
<path style=" stroke:none;fill-rule:nonzero;fill:rgb(0%,0%,0%);fill-opacity:1;" d="M 20.390625 44.683594 L 20.390625 47.046875 L 20.878906 47.027344 L 21.359375 47.011719 L 21.378906 46.035156 L 21.390625 45.066406 L 21.644531 45.066406 C 22.167969 45.066406 22.289062 45.179688 23.140625 46.449219 L 23.527344 47.035156 L 24.101562 47.035156 C 24.410156 47.039062 24.667969 47.023438 24.667969 47.007812 C 24.667969 46.957031 24.082031 46.042969 23.792969 45.628906 C 23.660156 45.445312 23.449219 45.21875 23.320312 45.125 L 23.101562 44.960938 L 23.3125 44.90625 C 23.917969 44.742188 24.265625 44.34375 24.316406 43.753906 C 24.367188 43.203125 24.117188 42.726562 23.644531 42.472656 C 23.429688 42.359375 23.339844 42.351562 21.90625 42.335938 L 20.390625 42.320312 Z M 23.179688 43.324219 C 23.320312 43.476562 23.34375 43.53125 23.316406 43.738281 C 23.300781 43.902344 23.246094 44.03125 23.144531 44.128906 C 23 44.265625 22.976562 44.269531 22.195312 44.289062 L 21.394531 44.304688 L 21.378906 43.726562 L 21.359375 43.148438 L 23.011719 43.148438 Z M 23.179688 43.324219 "/>
<path style=" stroke:none;fill-rule:nonzero;fill:rgb(0%,0%,0%);fill-opacity:1;" d="M 25.25 42.394531 C 25.234375 42.429688 25.226562 43.488281 25.234375 44.738281 L 25.25 47.011719 L 25.710938 47.027344 L 26.167969 47.046875 L 26.167969 42.324219 L 25.722656 42.324219 C 25.417969 42.324219 25.265625 42.347656 25.25 42.394531 Z M 25.25 42.394531 "/>
<path style=" stroke:none;fill-rule:nonzero;fill:rgb(0%,0%,0%);fill-opacity:1;" d="M 27.109375 44.675781 L 27.109375 47.039062 L 28.515625 47.039062 C 30.050781 47.039062 30.289062 47.007812 30.644531 46.738281 C 30.859375 46.574219 31.078125 46.183594 31.132812 45.855469 C 31.214844 45.394531 30.964844 44.90625 30.542969 44.683594 L 30.285156 44.539062 L 30.472656 44.390625 C 30.785156 44.144531 30.90625 43.855469 30.878906 43.414062 C 30.859375 43.097656 30.832031 43.011719 30.6875 42.835938 C 30.59375 42.71875 30.40625 42.566406 30.273438 42.488281 C 30.035156 42.351562 30.003906 42.351562 28.570312 42.335938 L 27.109375 42.320312 Z M 29.851562 43.316406 C 29.957031 43.449219 29.976562 43.753906 29.890625 43.921875 C 29.773438 44.132812 29.542969 44.1875 28.804688 44.1875 L 28.109375 44.1875 L 28.109375 43.152344 L 28.738281 43.136719 C 29.476562 43.113281 29.714844 43.15625 29.851562 43.316406 Z M 29.773438 45.097656 C 30.167969 45.253906 30.277344 45.773438 29.972656 46.050781 C 29.792969 46.21875 29.515625 46.265625 28.765625 46.273438 L 28.109375 46.273438 L 28.109375 45.011719 L 28.832031 45.011719 C 29.359375 45.011719 29.609375 45.03125 29.773438 45.097656 Z M 29.773438 45.097656 "/>
<path style=" stroke:none;fill-rule:nonzero;fill:rgb(0%,0%,0%);fill-opacity:1;" d="M 31.964844 42.40625 C 31.945312 42.457031 31.945312 43.25 31.957031 44.175781 C 31.976562 45.757812 31.988281 45.882812 32.105469 46.171875 C 32.1875 46.390625 32.304688 46.558594 32.476562 46.703125 C 32.851562 47.027344 33.179688 47.121094 33.945312 47.117188 C 34.511719 47.117188 34.621094 47.101562 34.894531 46.972656 C 35.261719 46.808594 35.476562 46.605469 35.617188 46.300781 C 35.765625 45.964844 35.839844 44.984375 35.820312 43.585938 L 35.804688 42.351562 L 35.320312 42.335938 L 34.839844 42.320312 L 34.820312 44.0625 C 34.804688 45.679688 34.800781 45.816406 34.695312 45.980469 C 34.542969 46.226562 34.210938 46.347656 33.785156 46.308594 C 33.394531 46.277344 33.195312 46.164062 33.050781 45.882812 C 32.949219 45.691406 32.945312 45.546875 32.945312 43.996094 L 32.945312 42.324219 L 32.472656 42.324219 C 32.101562 42.324219 31.988281 42.339844 31.964844 42.40625 Z M 31.964844 42.40625 "/>
<path style=" stroke:none;fill-rule:nonzero;fill:rgb(0%,0%,0%);fill-opacity:1;" d="M 36.832031 44.683594 L 36.832031 47.039062 L 37.777344 47.039062 L 37.777344 42.324219 L 36.832031 42.324219 Z M 36.832031 44.683594 "/>
<path style=" stroke:none;fill-rule:nonzero;fill:rgb(0%,0%,0%);fill-opacity:1;" d="M 38.667969 44.683594 L 38.667969 47.050781 L 39.988281 47.027344 C 41.226562 47.011719 41.320312 47 41.59375 46.878906 C 42.117188 46.648438 42.527344 46.078125 42.671875 45.394531 C 42.710938 45.21875 42.722656 44.847656 42.707031 44.488281 C 42.683594 44.003906 42.648438 43.816406 42.527344 43.519531 C 42.34375 43.066406 42.023438 42.699219 41.644531 42.5 C 41.359375 42.351562 41.355469 42.351562 40.015625 42.335938 L 38.667969 42.3125 Z M 41.042969 43.210938 C 41.261719 43.277344 41.410156 43.421875 41.570312 43.722656 C 41.679688 43.914062 41.695312 44.03125 41.695312 44.683594 C 41.695312 45.363281 41.683594 45.445312 41.554688 45.691406 C 41.316406 46.15625 41.054688 46.265625 40.15625 46.273438 L 39.667969 46.273438 L 39.667969 44.714844 C 39.667969 43.515625 39.683594 43.152344 39.738281 43.128906 C 39.855469 43.09375 40.851562 43.152344 41.042969 43.210938 Z M 41.042969 43.210938 "/>
<path style=" stroke:none;fill-rule:nonzero;fill:rgb(0%,0%,0%);fill-opacity:1;" d="M 48.777344 44.675781 L 48.777344 47.039062 L 49.777344 47.039062 L 49.777344 45.066406 L 50.027344 45.066406 C 50.332031 45.066406 50.59375 45.171875 50.765625 45.351562 C 50.832031 45.425781 51.121094 45.828125 51.410156 46.25 L 51.929688 47.011719 L 52.5 47.027344 C 53.027344 47.046875 53.066406 47.035156 53.035156 46.945312 C 52.921875 46.660156 52.148438 45.554688 51.871094 45.273438 C 51.59375 45.003906 51.5625 44.949219 51.648438 44.921875 C 52.195312 44.746094 52.390625 44.605469 52.578125 44.234375 C 52.90625 43.585938 52.667969 42.808594 52.039062 42.472656 C 51.816406 42.359375 51.734375 42.351562 50.292969 42.335938 L 48.777344 42.320312 Z M 51.527344 43.273438 C 51.640625 43.359375 51.683594 43.464844 51.707031 43.644531 C 51.734375 43.871094 51.714844 43.921875 51.566406 44.085938 L 51.398438 44.269531 L 50.589844 44.289062 L 49.777344 44.304688 L 49.777344 43.148438 L 50.578125 43.148438 C 51.332031 43.148438 51.390625 43.152344 51.527344 43.273438 Z M 51.527344 43.273438 "/>
<path style=" stroke:none;fill-rule:nonzero;fill:rgb(0%,0%,0%);fill-opacity:1;" d="M 54.859375 42.71875 C 54.777344 42.9375 54.570312 43.464844 54.40625 43.886719 C 54.238281 44.308594 53.957031 45.039062 53.765625 45.503906 C 53.582031 45.96875 53.371094 46.507812 53.300781 46.695312 L 53.167969 47.039062 L 54.195312 47.039062 L 54.390625 46.519531 L 54.582031 45.996094 L 55.554688 46.007812 L 56.527344 46.023438 L 56.917969 47.039062 L 57.4375 47.039062 C 57.949219 47.039062 57.957031 47.039062 57.921875 46.914062 C 57.898438 46.847656 57.484375 45.796875 56.984375 44.574219 L 56.082031 42.351562 L 55.550781 42.335938 L 55.015625 42.320312 Z M 55.878906 44.320312 C 56.039062 44.738281 56.148438 45.097656 56.132812 45.125 C 56.117188 45.152344 55.84375 45.175781 55.523438 45.175781 C 55.050781 45.175781 54.945312 45.160156 54.945312 45.09375 C 54.945312 44.945312 55.515625 43.46875 55.554688 43.515625 C 55.578125 43.535156 55.722656 43.898438 55.878906 44.320312 Z M 55.878906 44.320312 "/>
</g>
</svg>
